<svg width="54" height="54" viewBox="0 0 54 54" fill="none" xmlns="http://www.w3.org/2000/svg">
<g id="quality 1" clip-path="url(#clip0_90_369)">
<g id="XMLID_1364_">
<g id="XMLID_141_">
<path id="XMLID_162_" d="M48.1828 47.352L41.3516 35.52C42.4847 34.5659 43.2677 33.2089 43.4768 31.6713C43.6189 30.6257 44.1567 29.6942 44.9911 29.0483C47.154 27.3741 47.9412 24.4366 46.9052 21.905C46.5055 20.9284 46.5055 19.8528 46.9052 18.8763C47.9412 16.3447 47.154 13.4073 44.9911 11.733C44.1567 11.0871 43.6188 10.1556 43.4768 9.10999C43.1082 6.39966 40.9578 4.24925 38.2474 3.88079C37.202 3.7386 36.2704 3.20083 35.6247 2.36645C33.9502 0.203378 31.0131 -0.583644 28.4812 0.452322C27.5047 0.852004 26.429 0.852004 25.4526 0.452322C22.9211 -0.583749 19.9836 0.203378 18.3092 2.36645C17.6633 3.20083 16.7318 3.7386 15.6862 3.88079C12.9758 4.24935 10.8255 6.39966 10.457 9.11009C10.3148 10.1557 9.77709 11.0872 8.9427 11.7331C6.77963 13.4074 5.99261 16.3449 7.02857 18.8764C7.42826 19.8529 7.42826 20.9286 7.02857 21.9051C5.9925 24.4366 6.77963 27.3741 8.9427 29.0484C9.77709 29.6943 10.3148 30.6258 10.457 31.6713C10.6689 33.2292 11.4701 34.6012 12.6272 35.557L5.81729 47.352C5.604 47.7215 5.63417 48.1831 5.89398 48.5215C6.15368 48.8599 6.59155 49.0088 7.00389 48.8983L12.9396 47.3078L14.5233 53.218C14.6337 53.6302 14.9815 53.9351 15.4045 53.9908C15.4507 53.9969 15.4968 53.9999 15.5425 53.9999C15.9157 53.9999 16.2657 53.8016 16.4556 53.4725L23.8039 40.745C24.3611 40.685 24.9159 40.5486 25.4524 40.329C26.429 39.9293 27.5048 39.9293 28.4811 40.329C29.0405 40.558 29.6198 40.6975 30.2009 40.7532L37.5444 53.4725C37.7345 53.8017 38.0844 53.9999 38.4576 53.9999C38.5033 53.9999 38.5493 53.9969 38.5956 53.9908C39.0186 53.9351 39.3664 53.6302 39.4769 53.218L41.0606 47.3078L46.9963 48.8983C47.4082 49.0088 47.8464 48.8601 48.1061 48.5215C48.3659 48.1831 48.3961 47.7215 48.1828 47.352ZM15.9019 50.2122L14.7043 45.743C14.6318 45.4727 14.4551 45.2423 14.2128 45.1025C13.9705 44.9626 13.6828 44.9247 13.4124 44.9971L8.9176 46.2014L14.4601 36.6015C14.852 36.7417 15.2622 36.8429 15.6861 36.9006C16.7317 37.0428 17.6632 37.5805 18.3091 38.4149C19.1288 39.4739 20.2515 40.2023 21.4809 40.5491L15.9019 50.2122ZM24.6533 38.3765C22.9962 39.0548 21.0735 38.5395 19.9774 37.1237C18.9907 35.849 17.5676 35.0273 15.9703 34.8102C14.1962 34.569 12.7885 33.1614 12.5473 31.3871C12.3301 29.7899 11.5085 28.3669 10.2338 27.3801C8.81791 26.2841 8.30273 24.3612 8.98089 22.7041C9.59154 21.2123 9.59154 19.5691 8.98089 18.0773C8.30273 16.4202 8.81791 14.4973 10.2338 13.4013C11.5085 12.4146 12.3301 10.9916 12.5473 9.39427C12.7886 7.62012 14.1962 6.21243 15.9703 5.97118C17.5676 5.75409 18.9907 4.93247 19.9774 3.65779C20.7504 2.65917 21.9342 2.10864 23.1464 2.10864C23.6531 2.10864 24.1648 2.20495 24.6532 2.40485C26.1452 3.01539 27.7884 3.01539 29.2802 2.40485C30.9371 1.72658 32.8601 2.24187 33.9561 3.65779C34.9428 4.93247 36.3658 5.75409 37.9629 5.97118C39.7371 6.21243 41.1448 7.62001 41.386 9.39427C41.6032 10.9916 42.4248 12.4146 43.6995 13.4013C45.1154 14.4973 45.6306 16.4201 44.9525 18.0773C44.3419 19.5691 44.3419 21.2123 44.9525 22.7041C45.6306 24.3612 45.1153 26.2841 43.6995 27.3801C42.4248 28.3668 41.6032 29.7898 41.386 31.387C41.1448 33.1613 39.7371 34.569 37.963 34.8101C36.3657 35.0272 34.9427 35.8488 33.956 37.1236C32.8599 38.5396 30.9371 39.0547 29.2802 38.3764C27.7883 37.766 26.1453 37.766 24.6533 38.3765ZM40.5876 44.9971C40.0246 44.8461 39.4466 45.1803 39.2957 45.743L38.0981 50.2122L32.5095 40.5324C33.7165 40.1793 34.8174 39.4575 35.6246 38.4149C36.2703 37.5804 37.2019 37.0427 38.2473 36.9006C38.6911 36.8403 39.1196 36.7313 39.5279 36.5808L45.0823 46.2014L40.5876 44.9971Z" fill="#2C2C2C"/>
<path id="XMLID_1190_" d="M22.1732 16.4887L18.8912 19.7706C18.6935 19.9684 18.5823 20.2367 18.5823 20.5165C18.5823 20.7962 18.6935 21.0646 18.8912 21.2624L25.0466 27.4178C25.2444 27.6156 25.5127 27.7268 25.7925 27.7268C26.0722 27.7268 26.3406 27.6156 26.5384 27.4178L35.109 18.8472C35.5209 18.4353 35.5209 17.7673 35.109 17.3554L31.8272 14.0735C31.6293 13.8757 31.361 13.7645 31.0813 13.7645C30.8015 13.7645 30.5332 13.8757 30.3354 14.0735L25.7926 18.6164L23.6652 16.4889C23.4674 16.2911 23.199 16.1799 22.9193 16.1799C22.6393 16.1798 22.371 16.291 22.1732 16.4887ZM25.0465 20.854C25.2443 21.0518 25.5126 21.163 25.7924 21.163C26.0721 21.163 26.3405 21.0518 26.5383 20.854L31.0811 16.3111L32.8712 18.1013L25.7924 25.1802L21.1289 20.5166L22.9191 18.7265L25.0465 20.854Z" fill="#2C2C2C"/>
<path id="XMLID_1191_" d="M40.7131 20.7457C40.7131 17.9436 39.8733 15.2487 38.2847 12.9523C36.7333 10.71 34.5784 8.99533 32.0529 7.99386C31.5111 7.7792 30.8982 8.04407 30.6835 8.58563C30.4687 9.12719 30.7337 9.74027 31.2751 9.95503C35.7269 11.7203 38.6035 15.956 38.6035 20.7457C38.6035 27.1438 33.3982 32.349 27.0001 32.349C20.6021 32.349 15.3968 27.1438 15.3968 20.7457C15.3968 15.9559 18.2734 11.7202 22.7252 9.95493C23.2667 9.74016 23.5317 9.12708 23.3169 8.58553C23.1022 8.04397 22.489 7.77899 21.9475 7.99376C19.4219 8.99533 17.2669 10.7099 15.7156 12.9522C14.1269 15.2486 13.2871 17.9435 13.2871 20.7456C13.2871 28.307 19.4388 34.4586 27.0001 34.4586C34.5615 34.4587 40.7131 28.3071 40.7131 20.7457Z" fill="#2C2C2C"/>
<path id="XMLID_1218_" d="M27 9.14195C27.2774 9.14195 27.5496 9.03014 27.7457 8.83288C27.9419 8.63668 28.0548 8.36559 28.0548 8.08711C28.0548 7.80968 27.942 7.53753 27.7457 7.34133C27.5496 7.14513 27.2774 7.03226 27 7.03226C26.7226 7.03226 26.4504 7.14513 26.2542 7.34133C26.058 7.53753 25.9451 7.80968 25.9451 8.08711C25.9451 8.36559 26.058 8.63668 26.2542 8.83288C26.4504 9.03014 26.7226 9.14195 27 9.14195Z" fill="#2C2C2C"/>
</g>
</g>
</g>
<defs>
<clipPath id="clip0_90_369">
<rect width="54" height="54" fill="white"/>
</clipPath>
</defs>
</svg>
