<?xml version="1.0" encoding="utf-8"?>
<!DOCTYPE svg PUBLIC "-//W3C//DTD SVG 1.0//EN" "http://www.w3.org/TR/2001/REC-SVG-20010904/DTD/svg10.dtd">
<svg version="1.0" xmlns="http://www.w3.org/2000/svg" width="80px" height="80px" viewBox="0 0 80 80" preserveAspectRatio="xMidYMid meet">
 <g fill="#ffffff">
  <path d="M34.1 62.8 c-5.2 -2.6 -7.9 -5.8 -10.1 -11.8 l-2 -5.5 2.6 -2.1 c2.6 -2.1 2.6 -2.2 0.5 -2.9 -3.9 -1.2 -2 -11 3.5 -17.3 l3.2 -3.7 1.5 3.5 c0.8 1.9 1.7 4.2 2 5 0.3 0.8 0.6 -1.2 0.6 -4.6 0.1 -4.8 0.5 -6.5 2.1 -7.9 1.9 -1.7 2.1 -1.7 4 0 1.6 1.4 2 3.1 2.1 7.9 0 3.4 0.3 5.4 0.6 4.6 0.3 -0.8 1.2 -3.1 2 -5 l1.5 -3.5 3.2 3.7 c5.5 6.3 7.4 16.1 3.5 17.3 -2.1 0.7 -2.1 0.8 0.5 2.9 l2.6 2.1 -1.9 5.4 c-2.4 6.4 -4 8.3 -9.7 11.5 -2.9 1.6 -4.6 2 -5.3 1.3 -0.6 -0.6 -1.5 -0.7 -2.3 -0.1 -0.9 0.7 -2.4 0.4 -4.7 -0.8z m2.9 -7.3 c0 -1.4 -6.8 -8.4 -8.2 -8.5 -1.9 0 -0.5 4.4 2.1 7.1 3.2 3.1 6.1 3.8 6.1 1.4z m12.1 -1.4 c2.6 -2.7 4 -7.1 2.2 -7.1 -1.5 0.1 -8.3 7.1 -8.3 8.5 0 2.4 2.9 1.7 6.1 -1.4z m-7.1 -6.6 c0.9 -1.1 1 -1.8 0.1 -2.9 -0.9 -1 -0.8 -1.6 0.4 -2.6 1.2 -1 1.3 -1.6 0.4 -2.6 -0.8 -1 -0.9 -1.8 0 -2.7 0.8 -1.1 0.6 -1.8 -0.9 -3.2 -1.9 -1.7 -2.1 -1.7 -4 0 -1.5 1.4 -1.7 2.1 -0.9 3.2 0.9 0.9 0.8 1.7 0 2.7 -0.9 1 -0.8 1.6 0.4 2.6 1.2 1 1.3 1.6 0.4 2.6 -0.9 1.1 -0.8 1.8 0.1 2.9 0.7 0.8 1.6 1.5 2 1.5 0.4 0 1.3 -0.7 2 -1.5z"/>
 </g>
</svg>